<svg width="79" height="79" viewBox="0 0 79 79" fill="none" xmlns="http://www.w3.org/2000/svg">
<circle cx="39.3844" cy="39.3844" r="38.8844" fill="#FCF7FF" stroke="#FCF7FF"/>
<path d="M29.015 57.0438C27.9139 57.0438 26.9712 56.6517 26.1871 55.8675C25.4029 55.0834 25.0109 54.1407 25.0109 53.0396V27.0125H23.0088V23.0083H33.0192V21.0063H45.0317V23.0083H55.0421V27.0125H53.04V53.0396C53.04 54.1407 52.648 55.0834 51.8638 55.8675C51.0797 56.6517 50.137 57.0438 49.0359 57.0438H29.015ZM49.0359 27.0125H29.015V53.0396H49.0359V27.0125ZM33.0192 49.0354H37.0234V31.0167H33.0192V49.0354ZM41.0275 49.0354H45.0317V31.0167H41.0275V49.0354Z" fill="#5F29CC"/>
</svg>
