<svg width="79" height="79" fill="none" xmlns="http://www.w3.org/2000/svg"><circle cx="39.384" cy="39.384" r="38.884" fill="#FCF7FF" stroke="#FCF7FF"/><path d="M24.976 53.005h2.853l19.57-19.57-2.853-2.853-19.57 19.57v2.853Zm-4.004 4.004V48.5l26.427-26.377c.4-.367.842-.65 1.326-.85.484-.2.993-.3 1.526-.3.534 0 1.052.1 1.552.3.5.2.934.5 1.301.9l2.753 2.803c.4.367.693.801.876 1.302.184.5.275 1 .275 1.501 0 .534-.091 1.043-.275 1.527a3.75 3.75 0 0 1-.876 1.326L29.48 57.01h-8.508Zm24.975-24.976-1.401-1.451 2.853 2.853-1.452-1.402Z" fill="#5F29CC"/></svg>