<svg width="80" height="80" fill="none" xmlns="http://www.w3.org/2000/svg"><path fill-rule="evenodd" clip-rule="evenodd" d="M40 60c11.046 0 20-8.954 20-20s-8.954-20-20-20-20 8.954-20 20 8.954 20 20 20Zm0-6.667c7.364 0 13.333-5.97 13.333-13.333 0-7.364-5.97-13.333-13.333-13.333-7.364 0-13.333 5.97-13.333 13.333 0 7.364 5.97 13.333 13.333 13.333Z" fill="url(#a)"/><path d="M60 16.666a3.333 3.333 0 1 0 0 6.667 3.333 3.333 0 0 0 0-6.666Z" fill="url(#b)"/><path fill-rule="evenodd" clip-rule="evenodd" d="M5.513 14.254c-2.18 4.278-2.18 9.879-2.18 21.08v9.333c0 11.2 0 16.801 2.18 21.08a19.999 19.999 0 0 0 8.74 8.74c4.279 2.18 9.88 2.18 21.08 2.18h9.334c11.2 0 16.801 0 21.08-2.18a19.997 19.997 0 0 0 8.74-8.74c2.18-4.279 2.18-9.88 2.18-21.08v-9.334c0-11.2 0-16.801-2.18-21.08a19.998 19.998 0 0 0-8.74-8.74c-4.279-2.18-9.88-2.18-21.08-2.18h-9.334c-11.2 0-16.801 0-21.08 2.18a20 20 0 0 0-8.74 8.74ZM44.667 10h-9.334c-5.71 0-9.592.005-12.593.25-2.923.24-4.417.672-5.46 1.203a13.334 13.334 0 0 0-5.827 5.827c-.531 1.043-.964 2.538-1.203 5.46-.245 3.001-.25 6.883-.25 12.594v9.333c0 5.71.005 9.592.25 12.593.24 2.923.672 4.418 1.203 5.46a13.334 13.334 0 0 0 5.827 5.827c1.043.531 2.537.964 5.46 1.203 3 .245 6.883.25 12.593.25h9.334c5.71 0 9.592-.005 12.593-.25 2.923-.239 4.417-.672 5.46-1.203a13.334 13.334 0 0 0 5.827-5.827c.531-1.042.964-2.537 1.203-5.46.245-3 .25-6.883.25-12.593v-9.334c0-5.71-.005-9.592-.25-12.593-.239-2.922-.672-4.417-1.203-5.46a13.334 13.334 0 0 0-5.827-5.827c-1.043-.53-2.537-.964-5.46-1.202-3.001-.246-6.883-.25-12.593-.25Z" fill="url(#c)"/><defs><linearGradient id="a" x1="40" y1="20" x2="40" y2="60" gradientUnits="userSpaceOnUse"><stop stop-color="#301566"/><stop offset=".5" stop-color="#471F99"/><stop offset="1" stop-color="#5F29CC"/></linearGradient><linearGradient id="b" x1="60" y1="16.666" x2="60" y2="23.333" gradientUnits="userSpaceOnUse"><stop stop-color="#301566"/><stop offset=".5" stop-color="#471F99"/><stop offset="1" stop-color="#5F29CC"/></linearGradient><linearGradient id="c" x1="40" y1="3.333" x2="40" y2="76.667" gradientUnits="userSpaceOnUse"><stop stop-color="#301566"/><stop offset=".5" stop-color="#471F99"/><stop offset="1" stop-color="#5F29CC"/></linearGradient></defs></svg>