<svg width="112" height="112" fill="none" xmlns="http://www.w3.org/2000/svg"><g clip-path="url(#a)"><path d="M28 102.667c-2.567 0-4.764-.914-6.592-2.742-1.827-1.828-2.741-4.025-2.741-6.592V18.667c0-2.567.914-4.764 2.741-6.592 1.828-1.828 4.025-2.742 6.592-2.742h56c2.567 0 4.764.914 6.592 2.742 1.828 1.828 2.741 4.025 2.741 6.592v74.666c0 2.567-.913 4.764-2.741 6.592-1.828 1.828-4.025 2.742-6.592 2.742H28Zm0-9.334h56V18.667h-9.333v32.666l-11.667-7-11.667 7V18.667H28v74.666Z" fill="url(#b)"/></g><defs><linearGradient id="b" x1="56" y1="9.333" x2="56" y2="102.667" gradientUnits="userSpaceOnUse"><stop stop-color="#301566"/><stop offset=".5" stop-color="#471F99"/><stop offset="1" stop-color="#5F29CC"/></linearGradient><clipPath id="a"><path fill="#fff" d="M0 0h112v112H0z"/></clipPath></defs></svg>