<svg width="74" height="74" fill="none" xmlns="http://www.w3.org/2000/svg"><path d="M37 67c-8.333 0-15.417-2.917-21.25-8.75S7 45.333 7 37s2.917-15.417 8.75-21.25S28.667 7 37 7c.778 0 1.542.028 2.292.083.75.056 1.486.14 2.208.25-2.278 1.611-4.097 3.709-5.458 6.292C34.68 16.208 34 19 34 22c0 5 1.75 9.25 5.25 12.75S47 40 52 40c3.056 0 5.861-.68 8.417-2.042 2.555-1.36 4.639-3.18 6.25-5.458.11.722.194 1.458.25 2.208.055.75.083 1.514.083 2.292 0 8.333-2.917 15.417-8.75 21.25S45.333 67 37 67Zm0-6.667c4.889 0 9.278-1.347 13.167-4.041 3.889-2.695 6.722-6.209 8.5-10.542-1.111.278-2.223.5-3.334.667a22.45 22.45 0 0 1-3.333.25c-6.833 0-12.653-2.403-17.458-7.209-4.806-4.805-7.209-10.625-7.209-17.458 0-1.111.084-2.222.25-3.333.167-1.111.39-2.223.667-3.334-4.333 1.778-7.847 4.611-10.542 8.5-2.694 3.89-4.041 8.278-4.041 13.167 0 6.444 2.277 11.944 6.833 16.5 4.556 4.556 10.056 6.833 16.5 6.833Z" fill="#807B88"/></svg>