<svg width="91" height="91" viewBox="0 0 91 91" fill="none" xmlns="http://www.w3.org/2000/svg">
<path d="M46 55.5909C48.803 55.5909 51.1856 54.6098 53.1477 52.6477C55.1098 50.6856 56.0909 48.303 56.0909 45.5C56.0909 42.697 55.1098 40.3144 53.1477 38.3523C51.1856 36.3902 48.803 35.4091 46 35.4091C43.197 35.4091 40.8144 36.3902 38.8523 38.3523C36.8902 40.3144 35.9091 42.697 35.9091 45.5C35.9091 48.303 36.8902 50.6856 38.8523 52.6477C40.8144 54.6098 43.197 55.5909 46 55.5909ZM46 62.3182C41.347 62.3182 37.3807 60.6784 34.1011 57.3989C30.8216 54.1193 29.1818 50.153 29.1818 45.5C29.1818 40.847 30.8216 36.8807 34.1011 33.6011C37.3807 30.3216 41.347 28.6818 46 28.6818C50.653 28.6818 54.6193 30.3216 57.8989 33.6011C61.1784 36.8807 62.8182 40.847 62.8182 45.5C62.8182 50.153 61.1784 54.1193 57.8989 57.3989C54.6193 60.6784 50.653 62.3182 46 62.3182ZM22.4545 48.8636H9V42.1364H22.4545V48.8636ZM83 48.8636H69.5455V42.1364H83V48.8636ZM42.6364 21.9545V8.5H49.3636V21.9545H42.6364ZM42.6364 82.5V69.0455H49.3636V82.5H42.6364ZM27.1636 31.2045L18.6705 23.0477L23.4636 18.0864L31.5364 26.4955L27.1636 31.2045ZM68.5364 72.9136L60.3795 64.4205L64.8364 59.7955L73.3295 67.9523L68.5364 72.9136ZM60.2955 26.6636L68.4523 18.1705L73.4136 22.9636L65.0045 31.0364L60.2955 26.6636ZM18.5864 68.0364L27.0795 59.8795L31.7045 64.3364L23.5477 72.8295L18.5864 68.0364Z" fill="#807B88"/>
</svg>
