<svg width="90" height="90" viewBox="0 0 90 90" fill="none" xmlns="http://www.w3.org/2000/svg">
<circle cx="45" cy="45" r="45" fill="#5F29CC"/>
<path d="M45 74C36.6667 74 29.5833 71.0833 23.75 65.25C17.9167 59.4167 15 52.3333 15 44C15 35.6667 17.9167 28.5833 23.75 22.75C29.5833 16.9167 36.6667 14 45 14C45.7778 14 46.5417 14.0278 47.2917 14.0833C48.0417 14.1389 48.7778 14.2222 49.5 14.3333C47.2222 15.9444 45.4028 18.0417 44.0417 20.625C42.6806 23.2083 42 26 42 29C42 34 43.75 38.25 47.25 41.75C50.75 45.25 55 47 60 47C63.0556 47 65.8611 46.3194 68.4167 44.9583C70.9722 43.5972 73.0556 41.7778 74.6667 39.5C74.7778 40.2222 74.8611 40.9583 74.9167 41.7083C74.9722 42.4583 75 43.2222 75 44C75 52.3333 72.0833 59.4167 66.25 65.25C60.4167 71.0833 53.3333 74 45 74ZM45 67.3333C49.8889 67.3333 54.2778 65.9861 58.1667 63.2917C62.0556 60.5972 64.8889 57.0833 66.6667 52.75C65.5556 53.0278 64.4444 53.25 63.3333 53.4167C62.2222 53.5833 61.1111 53.6667 60 53.6667C53.1667 53.6667 47.3472 51.2639 42.5417 46.4583C37.7361 41.6528 35.3333 35.8333 35.3333 29C35.3333 27.8889 35.4167 26.7778 35.5833 25.6667C35.75 24.5556 35.9722 23.4444 36.25 22.3333C31.9167 24.1111 28.4028 26.9444 25.7083 30.8333C23.0139 34.7222 21.6667 39.1111 21.6667 44C21.6667 50.4444 23.9444 55.9444 28.5 60.5C33.0556 65.0556 38.5556 67.3333 45 67.3333Z" fill="#FCF7FF"/>
</svg>
