<svg width="91" height="92" fill="none" xmlns="http://www.w3.org/2000/svg"><circle cx="45" cy="46.5" r="45" fill="#5F29CC"/><path d="M46 55.59c2.803 0 5.186-.98 7.148-2.942 1.962-1.962 2.943-4.345 2.943-7.148s-.981-5.186-2.943-7.148C51.186 36.39 48.803 35.41 46 35.41s-5.186.981-7.148 2.943c-1.962 1.962-2.943 4.345-2.943 7.148s.981 5.186 2.943 7.148C40.814 54.61 43.197 55.59 46 55.59Zm0 6.728c-4.653 0-8.62-1.64-11.899-4.92-3.28-3.279-4.92-7.245-4.92-11.898s1.64-8.62 4.92-11.899c3.28-3.28 7.246-4.92 11.899-4.92 4.653 0 8.62 1.64 11.899 4.92 3.28 3.28 4.92 7.246 4.92 11.899 0 4.653-1.64 8.62-4.92 11.899-3.28 3.28-7.246 4.92-11.899 4.92ZM22.454 48.864H9v-6.728h13.454v6.728Zm60.546 0H69.546v-6.728H83v6.728Zm-40.364-26.91V8.5h6.728v13.454h-6.728Zm0 60.546V69.046h6.728V82.5h-6.728ZM27.164 31.204l-8.494-8.156 4.794-4.962 8.072 8.41-4.372 4.709Zm41.372 41.71L60.38 64.42l4.457-4.626 8.493 8.157-4.793 4.962Zm-8.24-46.25 8.156-8.494 4.962 4.794-8.41 8.072-4.709-4.372Zm-41.71 41.372 8.494-8.157 4.625 4.457-8.157 8.493-4.962-4.793Z" fill="#FCF7FF"/></svg>