<svg width="112" height="112" viewBox="0 0 112 112" fill="none" xmlns="http://www.w3.org/2000/svg">
<path d="M23.3333 98C20.7667 98 18.5694 97.0861 16.7417 95.2583C14.9139 93.4306 14 91.2333 14 88.6667V23.3334C14 20.7667 14.9139 18.5695 16.7417 16.7417C18.5694 14.9139 20.7667 14 23.3333 14H42.9333C43.9444 11.2 45.6361 8.94446 48.0083 7.23335C50.3806 5.52224 53.0444 4.66669 56 4.66669C58.9556 4.66669 61.6194 5.52224 63.9917 7.23335C66.3639 8.94446 68.0556 11.2 69.0667 14H88.6667C91.2333 14 93.4306 14.9139 95.2583 16.7417C97.0861 18.5695 98 20.7667 98 23.3334V88.6667C98 91.2333 97.0861 93.4306 95.2583 95.2583C93.4306 97.0861 91.2333 98 88.6667 98H23.3333ZM23.3333 88.6667H88.6667V23.3334H23.3333V88.6667ZM32.6667 79.3334H65.3333V70H32.6667V79.3334ZM32.6667 60.6667H79.3333V51.3334H32.6667V60.6667ZM32.6667 42H79.3333V32.6667H32.6667V42ZM56 19.8334C57.0111 19.8334 57.8472 19.5028 58.5083 18.8417C59.1694 18.1806 59.5 17.3445 59.5 16.3334C59.5 15.3222 59.1694 14.4861 58.5083 13.825C57.8472 13.1639 57.0111 12.8334 56 12.8334C54.9889 12.8334 54.1528 13.1639 53.4917 13.825C52.8306 14.4861 52.5 15.3222 52.5 16.3334C52.5 17.3445 52.8306 18.1806 53.4917 18.8417C54.1528 19.5028 54.9889 19.8334 56 19.8334Z" fill="url(#paint0_linear_12_13)"/>
<defs>
<linearGradient id="paint0_linear_12_13" x1="56" y1="4.66669" x2="56" y2="98" gradientUnits="userSpaceOnUse">
<stop stop-color="#301566"/>
<stop offset="0.5" stop-color="#471F99"/>
<stop offset="1" stop-color="#5F29CC"/>
</linearGradient>
</defs>
</svg>
