<svg width="47" height="47" viewBox="0 0 47 47" fill="none" xmlns="http://www.w3.org/2000/svg">
<path d="M20.7583 31.725L34.5646 17.9188L31.8229 15.1771L20.7583 26.2417L15.1771 20.6604L12.4354 23.4021L20.7583 31.725ZM9.79167 41.125C8.71458 41.125 7.79253 40.7415 7.02552 39.9745C6.25851 39.2075 5.875 38.2854 5.875 37.2083V9.79167C5.875 8.71458 6.25851 7.79253 7.02552 7.02552C7.79253 6.25851 8.71458 5.875 9.79167 5.875H37.2083C38.2854 5.875 39.2075 6.25851 39.9745 7.02552C40.7415 7.79253 41.125 8.71458 41.125 9.79167V37.2083C41.125 38.2854 40.7415 39.2075 39.9745 39.9745C39.2075 40.7415 38.2854 41.125 37.2083 41.125H9.79167ZM9.79167 37.2083H37.2083V9.79167H9.79167V37.2083Z" fill="#29FF0C"/>
</svg>
