<svg width="112" height="112" fill="none" xmlns="http://www.w3.org/2000/svg"><g clip-path="url(#a)"><g clip-path="url(#b)"><g clip-path="url(#c)"><path d="M64.272 56.829c2.843 2.16 6.016 3 9.518 2.522 3.502-.479 6.333-2.14 8.493-4.983 2.16-2.843 3-6.016 2.522-9.519-.478-3.502-2.139-6.333-4.982-8.493-2.844-2.16-6.017-3-9.519-2.522-3.502.479-6.333 2.14-8.493 4.983-2.16 2.843-3 6.016-2.522 9.519.478 3.502 2.14 6.333 4.983 8.493Zm-5.184 6.824c-4.72-3.585-7.48-8.305-8.28-14.159-.8-5.854.593-11.14 4.179-15.86 3.585-4.72 8.305-7.48 14.158-8.28 5.854-.8 11.141.593 15.861 4.178 4.72 3.585 7.48 8.305 8.28 14.159.8 5.854-.593 11.14-4.179 15.86-3.585 4.72-8.305 7.48-14.158 8.28-5.854.8-11.141-.593-15.861-4.178ZM45.57 31.862 31.922 21.494l5.184-6.824 13.648 10.368-5.183 6.824Zm61.417 46.653L93.34 68.147l5.183-6.824 13.649 10.368-5.184 6.824Zm-20.21-58.399L97.145 6.468l6.824 5.184L93.602 25.3l-6.824-5.184Zm-22.823-2.54-2.33-14.818 8.685-1.34 1.709 14.751-8.064 1.408ZM101.063 38.5l14.818-2.33 1.34 8.685-14.751 1.71-1.407-8.065Z" fill="url(#d)"/></g><path d="M45.31 97.745c-8.627 0-15.96-3.019-21.998-9.057s-9.058-13.37-9.058-21.997c0-8.626 3.02-15.959 9.058-21.997s13.37-9.058 21.997-9.058c.805 0 1.596.03 2.372.087.777.057 1.539.143 2.286.258-2.358 1.668-4.241 3.84-5.65 6.513-1.409 2.674-2.113 5.564-2.113 8.67 0 5.175 1.811 9.575 5.434 13.198 3.623 3.623 8.023 5.434 13.198 5.434 3.163 0 6.067-.704 8.713-2.113 2.645-1.409 4.802-3.292 6.47-5.65.115.747.2 1.51.258 2.286.058.776.087 1.567.087 2.372 0 8.626-3.02 15.959-9.058 21.997s-13.37 9.057-21.997 9.057Zm0-6.9c5.06 0 9.603-1.395 13.629-4.184 4.025-2.79 6.958-6.427 8.798-10.912-1.15.287-2.3.517-3.45.69-1.15.172-2.3.258-3.45.258-7.074 0-13.098-2.487-18.073-7.461-4.974-4.975-7.461-10.999-7.461-18.072 0-1.15.086-2.3.258-3.45.173-1.151.403-2.301.69-3.451-4.485 1.84-8.122 4.773-10.912 8.798-2.789 4.026-4.183 8.57-4.183 13.63 0 6.67 2.357 12.364 7.073 17.08 4.716 4.716 10.41 7.073 17.08 7.073Z" fill="url(#e)"/></g></g><defs><clipPath id="a"><path fill="#fff" d="M0 0h112v112H0z"/></clipPath><clipPath id="b"><path fill="#fff" d="M0 0h112v112H0z"/></clipPath><clipPath id="c"><path fill="#fff" d="m62.204-25.454 81.89 62.204-62.204 81.89L0 56.434z"/></clipPath><linearGradient id="d" x1="100.557" y1="9.06" x2="43.537" y2="84.125" gradientUnits="userSpaceOnUse"><stop stop-color="#301566"/><stop offset=".5" stop-color="#471F99"/><stop offset="1" stop-color="#5F29CC"/></linearGradient><linearGradient id="e" x1="45.309" y1="35.636" x2="45.309" y2="97.745" gradientUnits="userSpaceOnUse"><stop stop-color="#301566"/><stop offset=".5" stop-color="#471F99"/><stop offset="1" stop-color="#5F29CC"/></linearGradient></defs></svg>