<svg width="112" height="112" fill="none" xmlns="http://www.w3.org/2000/svg"><path d="M56 84c7.778 0 14.389-2.722 19.833-8.167C81.278 70.39 84 63.778 84 56c0-7.778-2.722-14.389-8.167-19.833C70.39 30.722 63.778 28 56 28v28L36.167 75.833a30.873 30.873 0 0 0 9.158 6.009C48.708 83.28 52.267 84 56 84Zm0 18.667c-6.456 0-12.522-1.225-18.2-3.675-5.678-2.45-10.617-5.775-14.817-9.975-4.2-4.2-7.525-9.14-9.975-14.817-2.45-5.678-3.675-11.745-3.675-18.2 0-6.456 1.225-12.522 3.675-18.2 2.45-5.678 5.775-10.617 9.975-14.817 4.2-4.2 9.14-7.525 14.817-9.975 5.678-2.45 11.744-3.675 18.2-3.675 6.456 0 12.522 1.225 18.2 3.675 5.678 2.45 10.617 5.775 14.817 9.975 4.2 4.2 7.525 9.14 9.975 14.817 2.45 5.678 3.675 11.744 3.675 18.2 0 6.456-1.225 12.522-3.675 18.2-2.45 5.678-5.775 10.617-9.975 14.817-4.2 4.2-9.14 7.525-14.817 9.975-5.678 2.45-11.745 3.675-18.2 3.675Zm0-9.334c10.422 0 19.25-3.616 26.483-10.85 7.234-7.233 10.85-16.06 10.85-26.483 0-10.422-3.616-19.25-10.85-26.483-7.233-7.234-16.06-10.85-26.483-10.85-10.422 0-19.25 3.616-26.483 10.85-7.234 7.233-10.85 16.06-10.85 26.483 0 10.422 3.616 19.25 10.85 26.483 7.233 7.234 16.06 10.85 26.483 10.85Z" fill="url(#a)"/><defs><linearGradient id="a" x1="56" y1="9.333" x2="56" y2="102.667" gradientUnits="userSpaceOnUse"><stop stop-color="#301566"/><stop offset=".5" stop-color="#471F99"/><stop offset="1" stop-color="#5F29CC"/></linearGradient></defs></svg>